<svg xmlns="http://www.w3.org/2000/svg" width="24" height="24" viewBox="0 0 24 24" fill="none">
  <!-- File background with folded corner - Blue for Word Doc -->
  <path d="M6 2C4.89543 2 4 2.89543 4 4V20C4 21.1046 4.89543 22 6 22H18C19.1046 22 20 21.1046 20 20V8L14 2H6Z" fill="#1565C0"/>
  <path d="M14 2L20 8H15C14.4477 8 14 7.55228 14 7V2Z" fill="#BBDEFB"/>
  <!-- DOC letters as paths -->
  <!-- D -->
  <path d="M5.5 11h1.3c1.2 0 1.9 0.8 1.9 2.25 0 1.45-0.7 2.25-1.9 2.25H5.5v-4.5z M6.5 11.7v3.1h0.2c0.7 0 1-0.5 1-1.55 0-1.05-0.3-1.55-1-1.55H6.5z" fill="white"/>
  <!-- O -->
  <path d="M10.5 13.25c0-1.4 0.7-2.35 1.7-2.35 1 0 1.7 0.95 1.7 2.35 0 1.4-0.7 2.35-1.7 2.35-1 0-1.7-0.95-1.7-2.35z M11.5 13.25c0 1 0.3 1.6 0.7 1.6 0.4 0 0.7-0.6 0.7-1.6 0-1-0.3-1.6-0.7-1.6-0.4 0-0.7 0.6-0.7 1.6z" fill="white"/>
  <!-- C -->
  <path d="M16.7 11.7c-0.2-0.15-0.4-0.2-0.7-0.2-0.6 0-1 0.6-1 1.75 0 1.15 0.4 1.75 1 1.75 0.3 0 0.5-0.1 0.7-0.25v0.8c-0.25 0.15-0.5 0.2-0.8 0.2-1.1 0-1.9-0.95-1.9-2.5 0-1.55 0.8-2.5 1.9-2.5 0.3 0 0.55 0.05 0.8 0.2v0.75z" fill="white"/>
</svg>
