<svg xmlns="http://www.w3.org/2000/svg" width="24" height="24" viewBox="0 0 24 24" fill="none">
  <!-- File background with folded corner - Red for PDF -->
  <path d="M6 2C4.89543 2 4 2.89543 4 4V20C4 21.1046 4.89543 22 6 22H18C19.1046 22 20 21.1046 20 20V8L14 2H6Z" fill="#E53935"/>
  <path d="M14 2L20 8H15C14.4477 8 14 7.55228 14 7V2Z" fill="#FFCDD2"/>
  <!-- PDF letters as paths -->
  <!-- P -->
  <path d="M6 11h1.5c1 0 1.5 0.5 1.5 1.3 0 0.8-0.5 1.2-1.5 1.2H7v2H6v-4.5z M7 11.7v1.1h0.4c0.5 0 0.7-0.2 0.7-0.55 0-0.35-0.2-0.55-0.7-0.55H7z" fill="white"/>
  <!-- D -->
  <path d="M10 11h1.3c1.2 0 1.9 0.8 1.9 2.25 0 1.45-0.7 2.25-1.9 2.25H10v-4.5z M11 11.7v3.1h0.2c0.7 0 1-0.5 1-1.55 0-1.05-0.3-1.55-1-1.55H11z" fill="white"/>
  <!-- F -->
  <path d="M14 11h2.5v0.7H15v1.1h1.3v0.7H15v2H14v-4.5z" fill="white"/>
</svg>
