<svg xmlns="http://www.w3.org/2000/svg" width="24" height="24" viewBox="0 0 24 24" fill="none">
  <!-- File background with folded corner - Gray for Text -->
  <path d="M6 2C4.89543 2 4 2.89543 4 4V20C4 21.1046 4.89543 22 6 22H18C19.1046 22 20 21.1046 20 20V8L14 2H6Z" fill="#616161"/>
  <path d="M14 2L20 8H15C14.4477 8 14 7.55228 14 7V2Z" fill="#E0E0E0"/>
  <!-- TXT letters as paths -->
  <!-- T -->
  <path d="M6 11h2.5v0.7H8v3.8H7v-3.8H6V11z" fill="white"/>
  <!-- X -->
  <path d="M9.2 11h1.1l0.7 1.5 0.7-1.5h1.1l-1.2 2.2 1.3 2.3h-1.1l-0.8-1.6-0.8 1.6H9.1l1.3-2.3-1.2-2.2z" fill="white"/>
  <!-- T -->
  <path d="M13.5 11H16v0.7h-0.75v3.8h-1v-3.8H13.5V11z" fill="white"/>
</svg>
