<svg xmlns="http://www.w3.org/2000/svg" width="24" height="24" viewBox="0 0 24 24" fill="none">
  <!-- File background with folded corner - Light Blue for Markdown -->
  <path d="M6 2C4.89543 2 4 2.89543 4 4V20C4 21.1046 4.89543 22 6 22H18C19.1046 22 20 21.1046 20 20V8L14 2H6Z" fill="#42A5F5"/>
  <path d="M14 2L20 8H15C14.4477 8 14 7.55228 14 7V2Z" fill="#E3F2FD"/>
  <!-- MD letters as paths -->
  <!-- M -->
  <path d="M7 11h1.4l0.9 2.8 0.9-2.8H11.6v4.5h-1v-3.2l-0.9 2.7H9l-0.9-2.7v3.2H7V11z" fill="white"/>
  <!-- D -->
  <path d="M12.5 11h1.5c1.3 0 2 0.85 2 2.25 0 1.4-0.7 2.25-2 2.25h-1.5V11z M13.5 11.75v3h0.4c0.7 0 1.1-0.55 1.1-1.5 0-0.95-0.4-1.5-1.1-1.5h-0.4z" fill="white"/>
</svg>
